G75*
%MOIN*%
%OFA0B0*%
%FSLAX25Y25*%
%IPPOS*%
%LPD*%
%AMOC8*
5,1,8,0,0,1.08239X$1,22.5*
%
%ADD10R,0.04331X0.03937*%
%ADD11R,0.03937X0.03150*%
%ADD12R,0.20000X0.10000*%
%ADD13R,0.05512X0.03937*%
%ADD14R,0.02400X0.08700*%
%ADD15C,0.01000*%
%ADD16C,0.01600*%
D10*
X0078454Y0026800D03*
X0085146Y0026800D03*
X0085146Y0046800D03*
X0078454Y0046800D03*
X0080146Y0056800D03*
X0073454Y0056800D03*
X0128454Y0076800D03*
X0135146Y0076800D03*
X0153454Y0066800D03*
X0160146Y0066800D03*
X0163454Y0056800D03*
X0170146Y0056800D03*
D11*
X0065737Y0016800D03*
X0057863Y0016800D03*
D12*
X0031800Y0021800D03*
X0031800Y0051800D03*
X0031800Y0081800D03*
X0206800Y0076800D03*
X0206800Y0091800D03*
X0206800Y0106800D03*
X0206800Y0061800D03*
X0206800Y0046800D03*
X0206800Y0031800D03*
X0206800Y0016800D03*
D13*
X0162469Y0103060D03*
X0171131Y0106800D03*
X0162469Y0110540D03*
D14*
X0124300Y0045000D03*
X0119300Y0045000D03*
X0114300Y0045000D03*
X0109300Y0045000D03*
X0109300Y0018500D03*
X0114300Y0018500D03*
X0119300Y0018500D03*
X0124300Y0018500D03*
D15*
X0119300Y0018500D02*
X0118900Y0018500D01*
X0118900Y0025700D01*
X0121600Y0028400D01*
X0203500Y0028400D01*
X0206200Y0031100D01*
X0206800Y0031800D01*
X0206800Y0016800D02*
X0206200Y0016700D01*
X0197200Y0016700D01*
X0191800Y0011300D01*
X0119800Y0011300D01*
X0118900Y0012200D01*
X0118000Y0012200D01*
X0114400Y0015800D01*
X0114400Y0018500D01*
X0114300Y0018500D01*
X0109900Y0018500D02*
X0109300Y0018500D01*
X0109900Y0018500D02*
X0108100Y0020300D01*
X0081100Y0020300D01*
X0078400Y0023000D01*
X0078400Y0026600D01*
X0078454Y0026800D01*
X0085146Y0026800D02*
X0085600Y0027500D01*
X0085600Y0035600D01*
X0099100Y0035600D01*
X0106300Y0042800D01*
X0109000Y0042800D01*
X0109900Y0043700D01*
X0109900Y0044600D01*
X0109300Y0045000D01*
X0109000Y0045500D01*
X0109000Y0050900D01*
X0113500Y0055400D01*
X0123400Y0055400D01*
X0141400Y0073400D01*
X0141400Y0074300D01*
X0163000Y0095900D01*
X0163000Y0102200D01*
X0162469Y0103060D01*
X0166600Y0104000D02*
X0166600Y0105800D01*
X0162100Y0110300D01*
X0162469Y0110540D01*
X0158500Y0116600D02*
X0128800Y0086900D01*
X0128800Y0077000D01*
X0128454Y0076800D01*
X0127900Y0077000D01*
X0124300Y0077000D01*
X0094600Y0047300D01*
X0085600Y0047300D01*
X0085146Y0046800D01*
X0078454Y0046800D02*
X0078400Y0046400D01*
X0073900Y0046400D01*
X0068500Y0051800D01*
X0031800Y0051800D01*
X0036100Y0042800D02*
X0019900Y0042800D01*
X0016300Y0046400D01*
X0016300Y0057200D01*
X0025300Y0066200D01*
X0025300Y0074300D01*
X0032500Y0081500D01*
X0031800Y0081800D01*
X0080146Y0056800D02*
X0080200Y0056300D01*
X0080200Y0052700D01*
X0078400Y0050900D01*
X0078400Y0047300D01*
X0078454Y0046800D01*
X0078400Y0046400D02*
X0078400Y0042800D01*
X0085600Y0035600D01*
X0057700Y0021200D02*
X0057700Y0017600D01*
X0057863Y0016800D01*
X0057700Y0021200D02*
X0036100Y0042800D01*
X0118900Y0045500D02*
X0119300Y0045000D01*
X0118900Y0045500D02*
X0118900Y0050900D01*
X0121600Y0053600D01*
X0124300Y0053600D01*
X0137800Y0067100D01*
X0153100Y0067100D01*
X0153454Y0066800D01*
X0160146Y0066800D02*
X0160300Y0067100D01*
X0160300Y0090500D01*
X0169300Y0099500D01*
X0169300Y0101300D01*
X0166600Y0104000D01*
X0171131Y0106800D02*
X0172000Y0106700D01*
X0206200Y0106700D01*
X0206800Y0106800D01*
X0217900Y0116600D02*
X0158500Y0116600D01*
X0206800Y0091800D02*
X0207100Y0092300D01*
X0217000Y0092300D01*
X0220600Y0095900D01*
X0220600Y0113900D01*
X0217900Y0116600D01*
X0206800Y0061800D02*
X0206200Y0061700D01*
X0197200Y0061700D01*
X0192700Y0057200D01*
X0170200Y0057200D01*
X0170146Y0056800D01*
X0163454Y0056800D02*
X0163000Y0057200D01*
X0137800Y0057200D01*
X0127900Y0047300D01*
X0125200Y0047300D01*
X0124300Y0046400D01*
X0124300Y0045000D01*
D16*
X0006600Y0011600D02*
X0006600Y0121961D01*
X0230701Y0121961D01*
X0230701Y0011600D01*
X0218400Y0011600D01*
X0218400Y0022463D01*
X0217463Y0023400D01*
X0196137Y0023400D01*
X0195200Y0022463D01*
X0195200Y0017670D01*
X0195100Y0017570D01*
X0190930Y0013400D01*
X0127145Y0013400D01*
X0127177Y0013455D01*
X0127300Y0013913D01*
X0127300Y0018500D01*
X0127300Y0023087D01*
X0127177Y0023545D01*
X0126940Y0023955D01*
X0126605Y0024290D01*
X0126195Y0024527D01*
X0125737Y0024650D01*
X0124300Y0024650D01*
X0124300Y0018500D01*
X0124300Y0018500D01*
X0127300Y0018500D01*
X0124300Y0018500D01*
X0124300Y0018500D01*
X0124300Y0024650D01*
X0122863Y0024650D01*
X0122405Y0024527D01*
X0121995Y0024290D01*
X0121660Y0023955D01*
X0121659Y0023954D01*
X0121163Y0024450D01*
X0121000Y0024450D01*
X0121000Y0024830D01*
X0122470Y0026300D01*
X0195200Y0026300D01*
X0195200Y0026137D01*
X0196137Y0025200D01*
X0217463Y0025200D01*
X0218400Y0026137D01*
X0218400Y0037463D01*
X0217463Y0038400D01*
X0196794Y0038400D01*
X0197794Y0039400D01*
X0202277Y0039400D01*
X0203159Y0039765D01*
X0203594Y0040200D01*
X0217463Y0040200D01*
X0218400Y0041137D01*
X0218400Y0052463D01*
X0217463Y0053400D01*
X0196137Y0053400D01*
X0195200Y0052463D01*
X0195200Y0043594D01*
X0194765Y0043159D01*
X0190806Y0039200D01*
X0126313Y0039200D01*
X0127100Y0039987D01*
X0127100Y0045200D01*
X0128770Y0045200D01*
X0130000Y0046430D01*
X0138670Y0055100D01*
X0159688Y0055100D01*
X0159688Y0054169D01*
X0160625Y0053231D01*
X0166282Y0053231D01*
X0166800Y0053750D01*
X0167318Y0053231D01*
X0172975Y0053231D01*
X0173912Y0054169D01*
X0173912Y0055100D01*
X0193570Y0055100D01*
X0195200Y0056730D01*
X0195200Y0056137D01*
X0196137Y0055200D01*
X0217463Y0055200D01*
X0218400Y0056137D01*
X0218400Y0067463D01*
X0217463Y0068400D01*
X0196137Y0068400D01*
X0195200Y0067463D01*
X0195200Y0062670D01*
X0195100Y0062570D01*
X0191830Y0059300D01*
X0173912Y0059300D01*
X0173912Y0059431D01*
X0172975Y0060368D01*
X0167318Y0060368D01*
X0166800Y0059850D01*
X0166282Y0060368D01*
X0160625Y0060368D01*
X0159688Y0059431D01*
X0159688Y0059300D01*
X0136930Y0059300D01*
X0127100Y0049470D01*
X0127100Y0050013D01*
X0126163Y0050950D01*
X0122437Y0050950D01*
X0121800Y0050313D01*
X0121541Y0050571D01*
X0122470Y0051500D01*
X0125170Y0051500D01*
X0126400Y0052730D01*
X0138670Y0065000D01*
X0149688Y0065000D01*
X0149688Y0064169D01*
X0150625Y0063231D01*
X0156282Y0063231D01*
X0156800Y0063750D01*
X0157318Y0063231D01*
X0162975Y0063231D01*
X0163912Y0064169D01*
X0163912Y0069431D01*
X0162975Y0070368D01*
X0162400Y0070368D01*
X0162400Y0089630D01*
X0170170Y0097400D01*
X0171400Y0098630D01*
X0171400Y0102170D01*
X0170338Y0103231D01*
X0174549Y0103231D01*
X0175487Y0104169D01*
X0175487Y0104600D01*
X0195200Y0104600D01*
X0195200Y0101137D01*
X0196137Y0100200D01*
X0217463Y0100200D01*
X0218400Y0101137D01*
X0218400Y0112463D01*
X0217463Y0113400D01*
X0196137Y0113400D01*
X0195200Y0112463D01*
X0195200Y0108800D01*
X0175487Y0108800D01*
X0175487Y0109431D01*
X0174549Y0110368D01*
X0167712Y0110368D01*
X0166825Y0109482D01*
X0166825Y0113171D01*
X0165888Y0114109D01*
X0159051Y0114109D01*
X0158113Y0113171D01*
X0158113Y0107909D01*
X0159051Y0106972D01*
X0162459Y0106972D01*
X0162802Y0106628D01*
X0159051Y0106628D01*
X0158113Y0105691D01*
X0158113Y0100429D01*
X0159051Y0099491D01*
X0160900Y0099491D01*
X0160900Y0096770D01*
X0140530Y0076400D01*
X0139300Y0075170D01*
X0139300Y0074270D01*
X0122530Y0057500D01*
X0112630Y0057500D01*
X0111400Y0056270D01*
X0111400Y0056270D01*
X0108130Y0053000D01*
X0106900Y0051770D01*
X0106900Y0050413D01*
X0106500Y0050013D01*
X0106500Y0044900D01*
X0105430Y0044900D01*
X0104200Y0043670D01*
X0098230Y0037700D01*
X0086470Y0037700D01*
X0080938Y0043231D01*
X0081282Y0043231D01*
X0081800Y0043750D01*
X0082318Y0043231D01*
X0087975Y0043231D01*
X0088912Y0044169D01*
X0088912Y0045200D01*
X0095470Y0045200D01*
X0124688Y0074418D01*
X0124688Y0074169D01*
X0125625Y0073231D01*
X0131282Y0073231D01*
X0131659Y0073608D01*
X0131876Y0073391D01*
X0132286Y0073154D01*
X0132744Y0073031D01*
X0134962Y0073031D01*
X0134962Y0076616D01*
X0135331Y0076616D01*
X0135331Y0076984D01*
X0139112Y0076984D01*
X0139112Y0079005D01*
X0138989Y0079463D01*
X0138752Y0079874D01*
X0138417Y0080209D01*
X0138007Y0080446D01*
X0137549Y0080568D01*
X0135331Y0080568D01*
X0135331Y0076984D01*
X0134962Y0076984D01*
X0134962Y0080568D01*
X0132744Y0080568D01*
X0132286Y0080446D01*
X0131876Y0080209D01*
X0131659Y0079992D01*
X0131282Y0080368D01*
X0130900Y0080368D01*
X0130900Y0086030D01*
X0159370Y0114500D01*
X0217030Y0114500D01*
X0218500Y0113030D01*
X0218500Y0096770D01*
X0218400Y0096670D01*
X0218400Y0097463D01*
X0217463Y0098400D01*
X0196137Y0098400D01*
X0195200Y0097463D01*
X0195200Y0086137D01*
X0196137Y0085200D01*
X0217463Y0085200D01*
X0218400Y0086137D01*
X0218400Y0090730D01*
X0221470Y0093800D01*
X0222700Y0095030D01*
X0222700Y0114770D01*
X0221470Y0116000D01*
X0221470Y0116000D01*
X0220000Y0117470D01*
X0218770Y0118700D01*
X0157630Y0118700D01*
X0127930Y0089000D01*
X0126700Y0087770D01*
X0126700Y0080368D01*
X0125625Y0080368D01*
X0124688Y0079431D01*
X0124688Y0079100D01*
X0123430Y0079100D01*
X0122200Y0077870D01*
X0093730Y0049400D01*
X0088912Y0049400D01*
X0088912Y0049431D01*
X0087975Y0050368D01*
X0082318Y0050368D01*
X0081800Y0049850D01*
X0081282Y0050368D01*
X0080838Y0050368D01*
X0081070Y0050600D01*
X0082300Y0051830D01*
X0082300Y0053231D01*
X0082975Y0053231D01*
X0083912Y0054169D01*
X0083912Y0059431D01*
X0082975Y0060368D01*
X0077318Y0060368D01*
X0076941Y0059992D01*
X0076724Y0060209D01*
X0076314Y0060446D01*
X0075856Y0060568D01*
X0073638Y0060568D01*
X0073638Y0056984D01*
X0073269Y0056984D01*
X0073269Y0056616D01*
X0069488Y0056616D01*
X0069488Y0054595D01*
X0069611Y0054137D01*
X0069848Y0053726D01*
X0070183Y0053391D01*
X0070593Y0053154D01*
X0071051Y0053031D01*
X0073269Y0053031D01*
X0073269Y0056616D01*
X0073638Y0056616D01*
X0073638Y0053031D01*
X0075856Y0053031D01*
X0076314Y0053154D01*
X0076724Y0053391D01*
X0076941Y0053608D01*
X0077318Y0053231D01*
X0077762Y0053231D01*
X0076300Y0051770D01*
X0076300Y0050368D01*
X0075625Y0050368D01*
X0074688Y0049431D01*
X0074688Y0048582D01*
X0069370Y0053900D01*
X0043400Y0053900D01*
X0043400Y0057463D01*
X0042463Y0058400D01*
X0021137Y0058400D01*
X0020200Y0057463D01*
X0020200Y0046137D01*
X0021137Y0045200D01*
X0042463Y0045200D01*
X0043400Y0046137D01*
X0043400Y0049700D01*
X0067630Y0049700D01*
X0071800Y0045530D01*
X0073030Y0044300D01*
X0074688Y0044300D01*
X0074688Y0044169D01*
X0075625Y0043231D01*
X0076300Y0043231D01*
X0076300Y0041930D01*
X0077530Y0040700D01*
X0083500Y0034730D01*
X0083500Y0030368D01*
X0082318Y0030368D01*
X0081800Y0029850D01*
X0081282Y0030368D01*
X0075625Y0030368D01*
X0074688Y0029431D01*
X0074688Y0024169D01*
X0075625Y0023231D01*
X0076300Y0023231D01*
X0076300Y0022130D01*
X0079000Y0019430D01*
X0080230Y0018200D01*
X0106500Y0018200D01*
X0106500Y0014200D01*
X0079200Y0014200D01*
X0079200Y0017277D01*
X0078835Y0018159D01*
X0078159Y0018835D01*
X0077277Y0019200D01*
X0069143Y0019200D01*
X0068368Y0019975D01*
X0063106Y0019975D01*
X0062169Y0019038D01*
X0062169Y0014562D01*
X0063106Y0013625D01*
X0068368Y0013625D01*
X0069143Y0014400D01*
X0074400Y0014400D01*
X0074400Y0011600D01*
X0006600Y0011600D01*
X0006600Y0013194D02*
X0074400Y0013194D01*
X0076800Y0011800D02*
X0111800Y0011800D01*
X0111800Y0042500D01*
X0114300Y0045000D01*
X0114300Y0039300D01*
X0116800Y0036800D01*
X0191800Y0036800D01*
X0196800Y0041800D01*
X0201800Y0041800D01*
X0206800Y0046800D01*
X0195200Y0046763D02*
X0130333Y0046763D01*
X0131931Y0048361D02*
X0195200Y0048361D01*
X0195200Y0049960D02*
X0133530Y0049960D01*
X0135128Y0051558D02*
X0195200Y0051558D01*
X0195894Y0053157D02*
X0136727Y0053157D01*
X0138325Y0054755D02*
X0159688Y0054755D01*
X0159808Y0059551D02*
X0133221Y0059551D01*
X0134819Y0061149D02*
X0193680Y0061149D01*
X0195200Y0062748D02*
X0136418Y0062748D01*
X0138016Y0064346D02*
X0149688Y0064346D01*
X0162400Y0070740D02*
X0195333Y0070740D01*
X0195360Y0070695D02*
X0195695Y0070360D01*
X0196105Y0070123D01*
X0196563Y0070000D01*
X0206000Y0070000D01*
X0206000Y0076000D01*
X0207600Y0076000D01*
X0207600Y0077600D01*
X0206000Y0077600D01*
X0206000Y0083600D01*
X0196563Y0083600D01*
X0196105Y0083477D01*
X0195695Y0083240D01*
X0195360Y0082905D01*
X0195123Y0082495D01*
X0195000Y0082037D01*
X0195000Y0077600D01*
X0206000Y0077600D01*
X0206000Y0076000D01*
X0195000Y0076000D01*
X0195000Y0071563D01*
X0195123Y0071105D01*
X0195360Y0070695D01*
X0195000Y0072339D02*
X0162400Y0072339D01*
X0162400Y0073937D02*
X0195000Y0073937D01*
X0195000Y0075536D02*
X0162400Y0075536D01*
X0162400Y0077134D02*
X0206000Y0077134D01*
X0206000Y0075536D02*
X0207600Y0075536D01*
X0207600Y0076000D02*
X0207600Y0070000D01*
X0217037Y0070000D01*
X0217495Y0070123D01*
X0217905Y0070360D01*
X0218240Y0070695D01*
X0218477Y0071105D01*
X0218600Y0071563D01*
X0218600Y0076000D01*
X0207600Y0076000D01*
X0207600Y0077134D02*
X0230701Y0077134D01*
X0230701Y0075536D02*
X0218600Y0075536D01*
X0218600Y0073937D02*
X0230701Y0073937D01*
X0230701Y0072339D02*
X0218600Y0072339D01*
X0218267Y0070740D02*
X0230701Y0070740D01*
X0230701Y0069142D02*
X0163912Y0069142D01*
X0163912Y0067543D02*
X0195281Y0067543D01*
X0195200Y0065945D02*
X0163912Y0065945D01*
X0163912Y0064346D02*
X0195200Y0064346D01*
X0192081Y0059551D02*
X0173792Y0059551D01*
X0173912Y0054755D02*
X0230701Y0054755D01*
X0230701Y0053157D02*
X0217706Y0053157D01*
X0218400Y0051558D02*
X0230701Y0051558D01*
X0230701Y0049960D02*
X0218400Y0049960D01*
X0218400Y0048361D02*
X0230701Y0048361D01*
X0230701Y0046763D02*
X0218400Y0046763D01*
X0218400Y0045164D02*
X0230701Y0045164D01*
X0230701Y0043566D02*
X0218400Y0043566D01*
X0218400Y0041967D02*
X0230701Y0041967D01*
X0230701Y0040369D02*
X0217631Y0040369D01*
X0218400Y0037172D02*
X0230701Y0037172D01*
X0230701Y0038770D02*
X0197164Y0038770D01*
X0193573Y0041967D02*
X0127100Y0041967D01*
X0127100Y0040369D02*
X0191975Y0040369D01*
X0195172Y0043566D02*
X0127100Y0043566D01*
X0127100Y0045164D02*
X0195200Y0045164D01*
X0195200Y0056354D02*
X0194824Y0056354D01*
X0206000Y0070740D02*
X0207600Y0070740D01*
X0207600Y0072339D02*
X0206000Y0072339D01*
X0206000Y0073937D02*
X0207600Y0073937D01*
X0207600Y0077600D02*
X0218600Y0077600D01*
X0218600Y0082037D01*
X0218477Y0082495D01*
X0218240Y0082905D01*
X0217905Y0083240D01*
X0217495Y0083477D01*
X0217037Y0083600D01*
X0207600Y0083600D01*
X0207600Y0077600D01*
X0207600Y0078733D02*
X0206000Y0078733D01*
X0206000Y0080332D02*
X0207600Y0080332D01*
X0207600Y0081930D02*
X0206000Y0081930D01*
X0206000Y0083529D02*
X0207600Y0083529D01*
X0217304Y0083529D02*
X0230701Y0083529D01*
X0230701Y0085127D02*
X0162400Y0085127D01*
X0162400Y0083529D02*
X0196296Y0083529D01*
X0195000Y0081930D02*
X0162400Y0081930D01*
X0162400Y0080332D02*
X0195000Y0080332D01*
X0195000Y0078733D02*
X0162400Y0078733D01*
X0162400Y0086726D02*
X0195200Y0086726D01*
X0195200Y0088324D02*
X0162400Y0088324D01*
X0162692Y0089923D02*
X0195200Y0089923D01*
X0195200Y0091521D02*
X0164291Y0091521D01*
X0165889Y0093120D02*
X0195200Y0093120D01*
X0195200Y0094718D02*
X0167488Y0094718D01*
X0169086Y0096317D02*
X0195200Y0096317D01*
X0195652Y0097915D02*
X0170685Y0097915D01*
X0171400Y0099514D02*
X0218500Y0099514D01*
X0218500Y0101112D02*
X0218375Y0101112D01*
X0218400Y0102711D02*
X0218500Y0102711D01*
X0218500Y0104309D02*
X0218400Y0104309D01*
X0218400Y0105908D02*
X0218500Y0105908D01*
X0218500Y0107506D02*
X0218400Y0107506D01*
X0218400Y0109105D02*
X0218500Y0109105D01*
X0218500Y0110703D02*
X0218400Y0110703D01*
X0218400Y0112302D02*
X0218500Y0112302D01*
X0217630Y0113900D02*
X0166096Y0113900D01*
X0166825Y0112302D02*
X0195200Y0112302D01*
X0195200Y0110703D02*
X0166825Y0110703D01*
X0158842Y0113900D02*
X0158770Y0113900D01*
X0158113Y0112302D02*
X0157172Y0112302D01*
X0158113Y0110703D02*
X0155573Y0110703D01*
X0153975Y0109105D02*
X0158113Y0109105D01*
X0158516Y0107506D02*
X0152376Y0107506D01*
X0150778Y0105908D02*
X0158330Y0105908D01*
X0158113Y0104309D02*
X0149179Y0104309D01*
X0147581Y0102711D02*
X0158113Y0102711D01*
X0158113Y0101112D02*
X0145982Y0101112D01*
X0144384Y0099514D02*
X0159028Y0099514D01*
X0160900Y0097915D02*
X0142785Y0097915D01*
X0141186Y0096317D02*
X0160447Y0096317D01*
X0158848Y0094718D02*
X0139588Y0094718D01*
X0137989Y0093120D02*
X0157250Y0093120D01*
X0155651Y0091521D02*
X0136391Y0091521D01*
X0134792Y0089923D02*
X0154053Y0089923D01*
X0152454Y0088324D02*
X0133194Y0088324D01*
X0131595Y0086726D02*
X0150856Y0086726D01*
X0149257Y0085127D02*
X0130900Y0085127D01*
X0130900Y0083529D02*
X0147659Y0083529D01*
X0146060Y0081930D02*
X0130900Y0081930D01*
X0131319Y0080332D02*
X0132088Y0080332D01*
X0134962Y0080332D02*
X0135331Y0080332D01*
X0135331Y0078733D02*
X0134962Y0078733D01*
X0134962Y0077134D02*
X0135331Y0077134D01*
X0135331Y0076616D02*
X0139112Y0076616D01*
X0139112Y0074595D01*
X0138989Y0074137D01*
X0138752Y0073726D01*
X0138417Y0073391D01*
X0138007Y0073154D01*
X0137549Y0073031D01*
X0135331Y0073031D01*
X0135331Y0076616D01*
X0135331Y0075536D02*
X0134962Y0075536D01*
X0134962Y0073937D02*
X0135331Y0073937D01*
X0137369Y0072339D02*
X0122609Y0072339D01*
X0124207Y0073937D02*
X0124919Y0073937D01*
X0121465Y0077134D02*
X0043400Y0077134D01*
X0043400Y0076137D02*
X0043400Y0087463D01*
X0042463Y0088400D01*
X0021137Y0088400D01*
X0020200Y0087463D01*
X0020200Y0076137D01*
X0021137Y0075200D01*
X0023230Y0075200D01*
X0023200Y0075170D01*
X0023200Y0067070D01*
X0014200Y0058070D01*
X0014200Y0045530D01*
X0015430Y0044300D01*
X0019030Y0040700D01*
X0035230Y0040700D01*
X0055600Y0020330D01*
X0055600Y0019975D01*
X0055232Y0019975D01*
X0054294Y0019038D01*
X0054294Y0014562D01*
X0055232Y0013625D01*
X0060494Y0013625D01*
X0061431Y0014562D01*
X0061431Y0019038D01*
X0060494Y0019975D01*
X0059800Y0019975D01*
X0059800Y0022070D01*
X0038200Y0043670D01*
X0036970Y0044900D01*
X0020770Y0044900D01*
X0018400Y0047270D01*
X0018400Y0056330D01*
X0026170Y0064100D01*
X0027400Y0065330D01*
X0027400Y0073430D01*
X0029170Y0075200D01*
X0042463Y0075200D01*
X0043400Y0076137D01*
X0042799Y0075536D02*
X0119866Y0075536D01*
X0118268Y0073937D02*
X0027907Y0073937D01*
X0027400Y0072339D02*
X0116669Y0072339D01*
X0115071Y0070740D02*
X0027400Y0070740D01*
X0027400Y0069142D02*
X0113472Y0069142D01*
X0111874Y0067543D02*
X0027400Y0067543D01*
X0027400Y0065945D02*
X0110275Y0065945D01*
X0108677Y0064346D02*
X0026416Y0064346D01*
X0024818Y0062748D02*
X0107078Y0062748D01*
X0105480Y0061149D02*
X0023219Y0061149D01*
X0021621Y0059551D02*
X0069661Y0059551D01*
X0069611Y0059463D02*
X0069488Y0059005D01*
X0069488Y0056984D01*
X0073269Y0056984D01*
X0073269Y0060568D01*
X0071051Y0060568D01*
X0070593Y0060446D01*
X0070183Y0060209D01*
X0069848Y0059874D01*
X0069611Y0059463D01*
X0069488Y0057952D02*
X0042910Y0057952D01*
X0043400Y0056354D02*
X0069488Y0056354D01*
X0069488Y0054755D02*
X0043400Y0054755D01*
X0043400Y0048361D02*
X0068969Y0048361D01*
X0070567Y0046763D02*
X0043400Y0046763D01*
X0038304Y0043566D02*
X0075291Y0043566D01*
X0076300Y0041967D02*
X0039903Y0041967D01*
X0041501Y0040369D02*
X0077861Y0040369D01*
X0079460Y0038770D02*
X0043100Y0038770D01*
X0044698Y0037172D02*
X0081058Y0037172D01*
X0082657Y0035573D02*
X0046297Y0035573D01*
X0047895Y0033975D02*
X0083500Y0033975D01*
X0083500Y0032376D02*
X0049494Y0032376D01*
X0051092Y0030778D02*
X0083500Y0030778D01*
X0074688Y0029179D02*
X0052691Y0029179D01*
X0054289Y0027581D02*
X0074688Y0027581D01*
X0074688Y0025982D02*
X0055888Y0025982D01*
X0057486Y0024384D02*
X0074688Y0024384D01*
X0076300Y0022785D02*
X0059085Y0022785D01*
X0059800Y0021187D02*
X0077244Y0021187D01*
X0078842Y0019588D02*
X0068755Y0019588D01*
X0065737Y0016800D02*
X0076800Y0016800D01*
X0076800Y0011800D01*
X0079200Y0014793D02*
X0106500Y0014793D01*
X0106500Y0016391D02*
X0079200Y0016391D01*
X0078905Y0017990D02*
X0106500Y0017990D01*
X0121229Y0024384D02*
X0122156Y0024384D01*
X0122152Y0025982D02*
X0195355Y0025982D01*
X0195522Y0022785D02*
X0127300Y0022785D01*
X0127300Y0021187D02*
X0195200Y0021187D01*
X0195200Y0019588D02*
X0127300Y0019588D01*
X0127300Y0017990D02*
X0195200Y0017990D01*
X0193921Y0016391D02*
X0127300Y0016391D01*
X0127300Y0014793D02*
X0192323Y0014793D01*
X0218400Y0014793D02*
X0230701Y0014793D01*
X0230701Y0016391D02*
X0218400Y0016391D01*
X0218400Y0017990D02*
X0230701Y0017990D01*
X0230701Y0019588D02*
X0218400Y0019588D01*
X0218400Y0021187D02*
X0230701Y0021187D01*
X0230701Y0022785D02*
X0218078Y0022785D01*
X0218245Y0025982D02*
X0230701Y0025982D01*
X0230701Y0024384D02*
X0126444Y0024384D01*
X0124300Y0024384D02*
X0124300Y0024384D01*
X0124300Y0022785D02*
X0124300Y0022785D01*
X0124300Y0021187D02*
X0124300Y0021187D01*
X0124300Y0019588D02*
X0124300Y0019588D01*
X0099300Y0038770D02*
X0085400Y0038770D01*
X0083801Y0040369D02*
X0100899Y0040369D01*
X0102497Y0041967D02*
X0082203Y0041967D01*
X0081984Y0043566D02*
X0081616Y0043566D01*
X0088309Y0043566D02*
X0104096Y0043566D01*
X0106500Y0045164D02*
X0088912Y0045164D01*
X0088383Y0049960D02*
X0094290Y0049960D01*
X0095888Y0051558D02*
X0082028Y0051558D01*
X0081910Y0049960D02*
X0081690Y0049960D01*
X0082300Y0053157D02*
X0097487Y0053157D01*
X0099085Y0054755D02*
X0083912Y0054755D01*
X0083912Y0056354D02*
X0100684Y0056354D01*
X0102283Y0057952D02*
X0083912Y0057952D01*
X0083792Y0059551D02*
X0103881Y0059551D01*
X0106624Y0056354D02*
X0111484Y0056354D01*
X0109886Y0054755D02*
X0105025Y0054755D01*
X0103427Y0053157D02*
X0108287Y0053157D01*
X0108130Y0053000D02*
X0108130Y0053000D01*
X0106900Y0051558D02*
X0101828Y0051558D01*
X0100230Y0049960D02*
X0106500Y0049960D01*
X0106500Y0048361D02*
X0098631Y0048361D01*
X0097033Y0046763D02*
X0106500Y0046763D01*
X0108222Y0057952D02*
X0122983Y0057952D01*
X0124581Y0059551D02*
X0109821Y0059551D01*
X0111419Y0061149D02*
X0126180Y0061149D01*
X0127778Y0062748D02*
X0113018Y0062748D01*
X0114616Y0064346D02*
X0129377Y0064346D01*
X0130975Y0065945D02*
X0116215Y0065945D01*
X0117813Y0067543D02*
X0132574Y0067543D01*
X0134172Y0069142D02*
X0119412Y0069142D01*
X0121010Y0070740D02*
X0135771Y0070740D01*
X0138874Y0073937D02*
X0138968Y0073937D01*
X0139112Y0075536D02*
X0139666Y0075536D01*
X0139112Y0077134D02*
X0141265Y0077134D01*
X0142863Y0078733D02*
X0139112Y0078733D01*
X0138205Y0080332D02*
X0144462Y0080332D01*
X0126700Y0081930D02*
X0043400Y0081930D01*
X0043400Y0080332D02*
X0125588Y0080332D01*
X0123063Y0078733D02*
X0043400Y0078733D01*
X0043400Y0083529D02*
X0126700Y0083529D01*
X0126700Y0085127D02*
X0043400Y0085127D01*
X0043400Y0086726D02*
X0126700Y0086726D01*
X0127254Y0088324D02*
X0042539Y0088324D01*
X0021061Y0088324D02*
X0006600Y0088324D01*
X0006600Y0086726D02*
X0020200Y0086726D01*
X0020200Y0085127D02*
X0006600Y0085127D01*
X0006600Y0083529D02*
X0020200Y0083529D01*
X0020200Y0081930D02*
X0006600Y0081930D01*
X0006600Y0080332D02*
X0020200Y0080332D01*
X0020200Y0078733D02*
X0006600Y0078733D01*
X0006600Y0077134D02*
X0020200Y0077134D01*
X0020801Y0075536D02*
X0006600Y0075536D01*
X0006600Y0073937D02*
X0023200Y0073937D01*
X0023200Y0072339D02*
X0006600Y0072339D01*
X0006600Y0070740D02*
X0023200Y0070740D01*
X0023200Y0069142D02*
X0006600Y0069142D01*
X0006600Y0067543D02*
X0023200Y0067543D01*
X0022075Y0065945D02*
X0006600Y0065945D01*
X0006600Y0064346D02*
X0020477Y0064346D01*
X0018878Y0062748D02*
X0006600Y0062748D01*
X0006600Y0061149D02*
X0017280Y0061149D01*
X0015681Y0059551D02*
X0006600Y0059551D01*
X0006600Y0057952D02*
X0014200Y0057952D01*
X0014200Y0056354D02*
X0006600Y0056354D01*
X0006600Y0054755D02*
X0014200Y0054755D01*
X0014200Y0053157D02*
X0006600Y0053157D01*
X0006600Y0051558D02*
X0014200Y0051558D01*
X0014200Y0049960D02*
X0006600Y0049960D01*
X0006600Y0048361D02*
X0014200Y0048361D01*
X0014200Y0046763D02*
X0006600Y0046763D01*
X0006600Y0045164D02*
X0014566Y0045164D01*
X0016164Y0043566D02*
X0006600Y0043566D01*
X0006600Y0041967D02*
X0017763Y0041967D01*
X0020506Y0045164D02*
X0072166Y0045164D01*
X0073310Y0049960D02*
X0075217Y0049960D01*
X0076300Y0051558D02*
X0071712Y0051558D01*
X0070589Y0053157D02*
X0070113Y0053157D01*
X0073269Y0053157D02*
X0073638Y0053157D01*
X0073638Y0054755D02*
X0073269Y0054755D01*
X0073269Y0056354D02*
X0073638Y0056354D01*
X0073638Y0057952D02*
X0073269Y0057952D01*
X0073269Y0059551D02*
X0073638Y0059551D01*
X0076318Y0053157D02*
X0077687Y0053157D01*
X0045152Y0030778D02*
X0006600Y0030778D01*
X0006600Y0032376D02*
X0043554Y0032376D01*
X0041955Y0033975D02*
X0006600Y0033975D01*
X0006600Y0035573D02*
X0040357Y0035573D01*
X0038758Y0037172D02*
X0006600Y0037172D01*
X0006600Y0038770D02*
X0037160Y0038770D01*
X0035561Y0040369D02*
X0006600Y0040369D01*
X0018907Y0046763D02*
X0020200Y0046763D01*
X0020200Y0048361D02*
X0018400Y0048361D01*
X0018400Y0049960D02*
X0020200Y0049960D01*
X0020200Y0051558D02*
X0018400Y0051558D01*
X0018400Y0053157D02*
X0020200Y0053157D01*
X0020200Y0054755D02*
X0018400Y0054755D01*
X0018424Y0056354D02*
X0020200Y0056354D01*
X0020022Y0057952D02*
X0020690Y0057952D01*
X0021563Y0028600D02*
X0021105Y0028477D01*
X0020695Y0028240D01*
X0020360Y0027905D01*
X0020123Y0027495D01*
X0020000Y0027037D01*
X0020000Y0022600D01*
X0031000Y0022600D01*
X0031000Y0028600D01*
X0021563Y0028600D01*
X0020172Y0027581D02*
X0006600Y0027581D01*
X0006600Y0029179D02*
X0046751Y0029179D01*
X0048349Y0027581D02*
X0043428Y0027581D01*
X0043477Y0027495D02*
X0043240Y0027905D01*
X0042905Y0028240D01*
X0042495Y0028477D01*
X0042037Y0028600D01*
X0032600Y0028600D01*
X0032600Y0022600D01*
X0031000Y0022600D01*
X0031000Y0021000D01*
X0032600Y0021000D01*
X0032600Y0022600D01*
X0043600Y0022600D01*
X0043600Y0027037D01*
X0043477Y0027495D01*
X0043600Y0025982D02*
X0049948Y0025982D01*
X0051547Y0024384D02*
X0043600Y0024384D01*
X0043600Y0022785D02*
X0053145Y0022785D01*
X0054744Y0021187D02*
X0032600Y0021187D01*
X0032600Y0021000D02*
X0043600Y0021000D01*
X0043600Y0016563D01*
X0043477Y0016105D01*
X0043240Y0015695D01*
X0042905Y0015360D01*
X0042495Y0015123D01*
X0042037Y0015000D01*
X0032600Y0015000D01*
X0032600Y0021000D01*
X0032600Y0019588D02*
X0031000Y0019588D01*
X0031000Y0021000D02*
X0031000Y0015000D01*
X0021563Y0015000D01*
X0021105Y0015123D01*
X0020695Y0015360D01*
X0020360Y0015695D01*
X0020123Y0016105D01*
X0020000Y0016563D01*
X0020000Y0021000D01*
X0031000Y0021000D01*
X0031000Y0021187D02*
X0006600Y0021187D01*
X0006600Y0022785D02*
X0020000Y0022785D01*
X0020000Y0024384D02*
X0006600Y0024384D01*
X0006600Y0025982D02*
X0020000Y0025982D01*
X0020000Y0019588D02*
X0006600Y0019588D01*
X0006600Y0017990D02*
X0020000Y0017990D01*
X0020046Y0016391D02*
X0006600Y0016391D01*
X0006600Y0014793D02*
X0054294Y0014793D01*
X0054294Y0016391D02*
X0043554Y0016391D01*
X0043600Y0017990D02*
X0054294Y0017990D01*
X0054845Y0019588D02*
X0043600Y0019588D01*
X0032600Y0017990D02*
X0031000Y0017990D01*
X0031000Y0016391D02*
X0032600Y0016391D01*
X0032600Y0022785D02*
X0031000Y0022785D01*
X0031000Y0024384D02*
X0032600Y0024384D01*
X0032600Y0025982D02*
X0031000Y0025982D01*
X0031000Y0027581D02*
X0032600Y0027581D01*
X0060881Y0019588D02*
X0062719Y0019588D01*
X0062169Y0017990D02*
X0061431Y0017990D01*
X0061431Y0016391D02*
X0062169Y0016391D01*
X0062169Y0014793D02*
X0061431Y0014793D01*
X0125228Y0051558D02*
X0129188Y0051558D01*
X0127590Y0049960D02*
X0127100Y0049960D01*
X0126827Y0053157D02*
X0130787Y0053157D01*
X0132386Y0054755D02*
X0128425Y0054755D01*
X0130024Y0056354D02*
X0133984Y0056354D01*
X0135583Y0057952D02*
X0131622Y0057952D01*
X0128853Y0089923D02*
X0006600Y0089923D01*
X0006600Y0091521D02*
X0130451Y0091521D01*
X0132050Y0093120D02*
X0006600Y0093120D01*
X0006600Y0094718D02*
X0133648Y0094718D01*
X0135247Y0096317D02*
X0006600Y0096317D01*
X0006600Y0097915D02*
X0136845Y0097915D01*
X0138444Y0099514D02*
X0006600Y0099514D01*
X0006600Y0101112D02*
X0140042Y0101112D01*
X0141641Y0102711D02*
X0006600Y0102711D01*
X0006600Y0104309D02*
X0143239Y0104309D01*
X0144838Y0105908D02*
X0006600Y0105908D01*
X0006600Y0107506D02*
X0146436Y0107506D01*
X0148035Y0109105D02*
X0006600Y0109105D01*
X0006600Y0110703D02*
X0149633Y0110703D01*
X0151232Y0112302D02*
X0006600Y0112302D01*
X0006600Y0113900D02*
X0152830Y0113900D01*
X0154429Y0115499D02*
X0006600Y0115499D01*
X0006600Y0117097D02*
X0156027Y0117097D01*
X0157626Y0118696D02*
X0006600Y0118696D01*
X0006600Y0120294D02*
X0230701Y0120294D01*
X0230701Y0118696D02*
X0218774Y0118696D01*
X0220000Y0117470D02*
X0220000Y0117470D01*
X0220373Y0117097D02*
X0230701Y0117097D01*
X0230701Y0115499D02*
X0221971Y0115499D01*
X0222700Y0113900D02*
X0230701Y0113900D01*
X0230701Y0112302D02*
X0222700Y0112302D01*
X0222700Y0110703D02*
X0230701Y0110703D01*
X0230701Y0109105D02*
X0222700Y0109105D01*
X0222700Y0107506D02*
X0230701Y0107506D01*
X0230701Y0105908D02*
X0222700Y0105908D01*
X0222700Y0104309D02*
X0230701Y0104309D01*
X0230701Y0102711D02*
X0222700Y0102711D01*
X0222700Y0101112D02*
X0230701Y0101112D01*
X0230701Y0099514D02*
X0222700Y0099514D01*
X0222700Y0097915D02*
X0230701Y0097915D01*
X0230701Y0096317D02*
X0222700Y0096317D01*
X0222388Y0094718D02*
X0230701Y0094718D01*
X0230701Y0093120D02*
X0220789Y0093120D01*
X0219191Y0091521D02*
X0230701Y0091521D01*
X0230701Y0089923D02*
X0218400Y0089923D01*
X0218400Y0088324D02*
X0230701Y0088324D01*
X0230701Y0086726D02*
X0218400Y0086726D01*
X0218600Y0081930D02*
X0230701Y0081930D01*
X0230701Y0080332D02*
X0218600Y0080332D01*
X0218600Y0078733D02*
X0230701Y0078733D01*
X0230701Y0067543D02*
X0218319Y0067543D01*
X0218400Y0065945D02*
X0230701Y0065945D01*
X0230701Y0064346D02*
X0218400Y0064346D01*
X0218400Y0062748D02*
X0230701Y0062748D01*
X0230701Y0061149D02*
X0218400Y0061149D01*
X0218400Y0059551D02*
X0230701Y0059551D01*
X0230701Y0057952D02*
X0218400Y0057952D01*
X0218400Y0056354D02*
X0230701Y0056354D01*
X0230701Y0035573D02*
X0218400Y0035573D01*
X0218400Y0033975D02*
X0230701Y0033975D01*
X0230701Y0032376D02*
X0218400Y0032376D01*
X0218400Y0030778D02*
X0230701Y0030778D01*
X0230701Y0029179D02*
X0218400Y0029179D01*
X0218400Y0027581D02*
X0230701Y0027581D01*
X0230701Y0013194D02*
X0218400Y0013194D01*
X0218500Y0097915D02*
X0217948Y0097915D01*
X0195225Y0101112D02*
X0171400Y0101112D01*
X0170859Y0102711D02*
X0195200Y0102711D01*
X0195200Y0104309D02*
X0175487Y0104309D01*
X0175487Y0109105D02*
X0195200Y0109105D01*
X0230701Y0121893D02*
X0006600Y0121893D01*
M02*
