G75*
%MOIN*%
%OFA0B0*%
%FSLAX26Y26*%
%IPPOS*%
%LPD*%
%AMOC8*
5,1,8,0,0,1.08239X$1,22.5*
%
%ADD10R,0.043307X0.039370*%
%ADD11R,0.039370X0.031496*%
%ADD12R,0.200000X0.100000*%
%ADD13R,0.055118X0.039370*%
%ADD14R,0.024000X0.087000*%
%ADD15OC8,0.074000*%
%ADD16C,0.010000*%
%ADD17C,0.016000*%
%ADD18C,0.040000*%
D10*
X00666535Y00200000D03*
X00733465Y00200000D03*
X00733465Y00400000D03*
X00666535Y00400000D03*
X00683465Y00500000D03*
X00616535Y00500000D03*
X01166535Y00700000D03*
X01233465Y00700000D03*
X01416535Y00600000D03*
X01483465Y00600000D03*
X01516535Y00500000D03*
X01583465Y00500000D03*
D11*
X00539370Y00100000D03*
X00460630Y00100000D03*
D12*
X00200000Y00150000D03*
X00200000Y00450000D03*
X00200000Y00750000D03*
X01950000Y00700000D03*
X01950000Y00850000D03*
X01950000Y01000000D03*
X01950000Y00550000D03*
X01950000Y00400000D03*
X01950000Y00250000D03*
X01950000Y00100000D03*
D13*
X01593307Y00962598D03*
X01506693Y01000000D03*
X01593307Y01037402D03*
D14*
X01125000Y00382000D03*
X01075000Y00382000D03*
X01025000Y00382000D03*
X00975000Y00382000D03*
X00975000Y00117000D03*
X01025000Y00117000D03*
X01075000Y00117000D03*
X01125000Y00117000D03*
D15*
X00850000Y00950000D03*
X00750000Y00950000D03*
X00650000Y00950000D03*
X00550000Y00950000D03*
X00450000Y00950000D03*
X00450000Y01050000D03*
X00550000Y01050000D03*
X00650000Y01050000D03*
X00750000Y01050000D03*
X00850000Y01050000D03*
D16*
X00846000Y01053000D01*
X00756000Y01053000D01*
X00750000Y01050000D01*
X00747000Y01053000D01*
X00657000Y01053000D01*
X00650000Y01050000D01*
X00450000Y01050000D02*
X00450000Y01044000D01*
X00423000Y01044000D01*
X00342000Y00963000D01*
X00342000Y00585000D01*
X00279000Y00522000D01*
X00279000Y00450000D01*
X00200000Y00450000D01*
X00279000Y00450000D02*
X00567000Y00450000D01*
X00621000Y00396000D01*
X00666000Y00396000D01*
X00666535Y00400000D01*
X00666000Y00405000D01*
X00666000Y00441000D01*
X00684000Y00459000D01*
X00684000Y00495000D01*
X00683465Y00500000D01*
X00666000Y00396000D02*
X00666000Y00360000D01*
X00738000Y00288000D01*
X00873000Y00288000D01*
X00945000Y00360000D01*
X00972000Y00360000D01*
X00981000Y00369000D01*
X00981000Y00378000D01*
X00975000Y00382000D01*
X00972000Y00387000D01*
X00972000Y00441000D01*
X01017000Y00486000D01*
X01116000Y00486000D01*
X01296000Y00666000D01*
X01296000Y00675000D01*
X01512000Y00891000D01*
X01512000Y00954000D01*
X01593307Y01037402D01*
X01602000Y00999000D02*
X01506693Y01000000D01*
X01503000Y01035000D02*
X01593307Y00962598D01*
X01575000Y00945000D02*
X01548000Y00972000D01*
X01548000Y00990000D01*
X01503000Y01035000D01*
X01467000Y01098000D02*
X01170000Y00801000D01*
X01170000Y00702000D01*
X01166535Y00700000D01*
X01161000Y00702000D01*
X01125000Y00702000D01*
X00828000Y00405000D01*
X00738000Y00405000D01*
X00733465Y00400000D01*
X00738000Y00288000D02*
X00738000Y00207000D01*
X00733465Y00200000D01*
X00666535Y00200000D02*
X00666000Y00198000D01*
X00666000Y00162000D01*
X00693000Y00135000D01*
X00909000Y00135000D01*
X00909000Y00270000D01*
X00999000Y00306000D02*
X01000000Y00306000D01*
X01075000Y00382000D02*
X01071000Y00387000D01*
X01071000Y00441000D01*
X01098000Y00468000D01*
X01125000Y00468000D01*
X01260000Y00603000D01*
X01287000Y00603000D01*
X01413000Y00603000D01*
X01416535Y00600000D01*
X01483465Y00600000D02*
X01485000Y00603000D01*
X01485000Y00837000D01*
X01575000Y00927000D01*
X01575000Y00945000D01*
X01602000Y00999000D02*
X01944000Y00999000D01*
X01950000Y01000000D01*
X02061000Y01098000D02*
X01467000Y01098000D01*
X01950000Y00850000D02*
X01953000Y00855000D01*
X02052000Y00855000D01*
X02088000Y00891000D01*
X02088000Y01071000D01*
X02061000Y01098000D01*
X01950000Y00550000D02*
X01944000Y00549000D01*
X01854000Y00549000D01*
X01809000Y00504000D01*
X01584000Y00504000D01*
X01583465Y00500000D01*
X01516535Y00500000D02*
X01512000Y00504000D01*
X01260000Y00504000D01*
X01170000Y00414000D01*
X01161000Y00405000D01*
X01134000Y00405000D01*
X01125000Y00396000D01*
X01125000Y00382000D01*
X01098000Y00216000D02*
X01917000Y00216000D01*
X01944000Y00243000D01*
X01950000Y00250000D01*
X01950000Y00100000D02*
X01944000Y00099000D01*
X01854000Y00099000D01*
X01800000Y00045000D01*
X01080000Y00045000D01*
X01071000Y00054000D01*
X01062000Y00054000D01*
X01026000Y00090000D01*
X01026000Y00117000D01*
X01025000Y00117000D01*
X00981000Y00117000D02*
X00975000Y00117000D01*
X00981000Y00117000D02*
X00963000Y00135000D01*
X00909000Y00135000D01*
X01071000Y00117000D02*
X01075000Y00117000D01*
X01071000Y00117000D02*
X01071000Y00189000D01*
X01098000Y00216000D01*
X00459000Y00144000D02*
X00459000Y00108000D01*
X00460630Y00100000D01*
X00459000Y00144000D02*
X00243000Y00360000D01*
X00081000Y00360000D01*
X00045000Y00396000D01*
X00045000Y00504000D01*
X00135000Y00594000D01*
X00135000Y00675000D01*
X00207000Y00747000D01*
X00200000Y00750000D01*
D17*
X-00052000Y01251606D02*
X-00052000Y00048000D01*
X00626000Y00048000D01*
X00626000Y00076000D01*
X00573430Y00076000D01*
X00565682Y00068252D01*
X00513058Y00068252D01*
X00503685Y00077625D01*
X00503685Y00122375D01*
X00513058Y00131748D01*
X00565682Y00131748D01*
X00573430Y00124000D01*
X00654774Y00124000D01*
X00663595Y00120346D01*
X00670346Y00113595D01*
X00674000Y00104774D01*
X00674000Y00074000D01*
X00947000Y00074000D01*
X00947000Y00114000D01*
X00684301Y00114000D01*
X00672000Y00126301D01*
X00645000Y00153301D01*
X00645000Y00164315D01*
X00638254Y00164315D01*
X00628882Y00173688D01*
X00628882Y00226312D01*
X00638254Y00235685D01*
X00694816Y00235685D01*
X00700000Y00230501D01*
X00705184Y00235685D01*
X00717000Y00235685D01*
X00717000Y00279302D01*
X00657301Y00339000D01*
X00645000Y00351301D01*
X00645000Y00364315D01*
X00638254Y00364315D01*
X00628882Y00373688D01*
X00628882Y00375000D01*
X00612301Y00375000D01*
X00600000Y00387301D01*
X00558301Y00429000D01*
X00316000Y00429000D01*
X00316000Y00393373D01*
X00306627Y00384000D01*
X00093373Y00384000D01*
X00084000Y00393373D01*
X00084000Y00506627D01*
X00093373Y00516000D01*
X00258000Y00516000D01*
X00258000Y00530698D01*
X00270301Y00543000D01*
X00321000Y00593698D01*
X00321000Y00971698D01*
X00333301Y00984000D01*
X00397000Y01047698D01*
X00397000Y01071953D01*
X00428047Y01103000D01*
X00471953Y01103000D01*
X00500000Y01074953D01*
X00528047Y01103000D01*
X00571953Y01103000D01*
X00600000Y01074953D01*
X00628047Y01103000D01*
X00671953Y01103000D01*
X00700000Y01074953D01*
X00728047Y01103000D01*
X00771953Y01103000D01*
X00800000Y01074953D01*
X00828047Y01103000D01*
X00871953Y01103000D01*
X00903000Y01071953D01*
X00903000Y01028047D01*
X00874953Y01000000D01*
X00903000Y00971953D01*
X00903000Y00928047D01*
X00871953Y00897000D01*
X00828047Y00897000D01*
X00800000Y00925047D01*
X00771953Y00897000D01*
X00728047Y00897000D01*
X00700000Y00925047D01*
X00671953Y00897000D01*
X00628047Y00897000D01*
X00600000Y00925047D01*
X00571953Y00897000D01*
X00528047Y00897000D01*
X00500000Y00925047D01*
X00471953Y00897000D01*
X00428047Y00897000D01*
X00397000Y00928047D01*
X00397000Y00971953D01*
X00425047Y01000000D01*
X00416873Y01008174D01*
X00363000Y00954301D01*
X00363000Y00576301D01*
X00302698Y00516000D01*
X00306627Y00516000D01*
X00316000Y00506627D01*
X00316000Y00471000D01*
X00575698Y00471000D01*
X00628882Y00417816D01*
X00628882Y00426312D01*
X00638254Y00435685D01*
X00645000Y00435685D01*
X00645000Y00449698D01*
X00659617Y00464315D01*
X00655184Y00464315D01*
X00651414Y00468084D01*
X00649241Y00465911D01*
X00645137Y00463542D01*
X00640559Y00462315D01*
X00618378Y00462315D01*
X00618378Y00498157D01*
X00614693Y00498157D01*
X00614693Y00462315D01*
X00592512Y00462315D01*
X00587934Y00463542D01*
X00583830Y00465911D01*
X00580478Y00469263D01*
X00578109Y00473367D01*
X00576882Y00477945D01*
X00576882Y00498157D01*
X00614692Y00498157D01*
X00614692Y00501843D01*
X00576882Y00501843D01*
X00576882Y00522055D01*
X00578109Y00526633D01*
X00580478Y00530737D01*
X00583830Y00534089D01*
X00587934Y00536458D01*
X00592512Y00537685D01*
X00614693Y00537685D01*
X00614693Y00501843D01*
X00618378Y00501843D01*
X00618378Y00537685D01*
X00640559Y00537685D01*
X00645137Y00536458D01*
X00649241Y00534089D01*
X00651414Y00531915D01*
X00655184Y00535685D01*
X00711745Y00535685D01*
X00721118Y00526312D01*
X00721118Y00473688D01*
X00711745Y00464315D01*
X00705000Y00464315D01*
X00705000Y00450301D01*
X00692698Y00438000D01*
X00690383Y00435685D01*
X00694816Y00435685D01*
X00700000Y00430501D01*
X00705184Y00435685D01*
X00761745Y00435685D01*
X00771118Y00426312D01*
X00771118Y00426000D01*
X00819301Y00426000D01*
X01104000Y00710698D01*
X01116301Y00723000D01*
X01128882Y00723000D01*
X01128882Y00726312D01*
X01138254Y00735685D01*
X01149000Y00735685D01*
X01149000Y00809698D01*
X01161301Y00822000D01*
X01458301Y01119000D01*
X02069698Y01119000D01*
X02082000Y01106698D01*
X02109000Y01079698D01*
X02109000Y00882301D01*
X02096698Y00870000D01*
X02066000Y00839301D01*
X02066000Y00793373D01*
X02056627Y00784000D01*
X01843373Y00784000D01*
X01834000Y00793373D01*
X01834000Y00906627D01*
X01843373Y00916000D01*
X02056627Y00916000D01*
X02066000Y00906627D01*
X02066000Y00898698D01*
X02067000Y00899698D01*
X02067000Y01062301D01*
X02052301Y01077000D01*
X01475698Y01077000D01*
X01191000Y00792301D01*
X01191000Y00735685D01*
X01194816Y00735685D01*
X01198586Y00731915D01*
X01200759Y00734089D01*
X01204863Y00736458D01*
X01209441Y00737685D01*
X01231622Y00737685D01*
X01231622Y00701843D01*
X01235307Y00701843D01*
X01235307Y00737685D01*
X01257488Y00737685D01*
X01262066Y00736458D01*
X01266170Y00734089D01*
X01269522Y00730737D01*
X01271891Y00726633D01*
X01273118Y00722055D01*
X01273118Y00701843D01*
X01235308Y00701843D01*
X01235308Y00698157D01*
X01273118Y00698157D01*
X01273118Y00677945D01*
X01271891Y00673367D01*
X01269522Y00669263D01*
X01266170Y00665911D01*
X01262066Y00663542D01*
X01257488Y00662315D01*
X01235307Y00662315D01*
X01235307Y00698157D01*
X01231622Y00698157D01*
X01231622Y00662315D01*
X01209441Y00662315D01*
X01204863Y00663542D01*
X01200759Y00665911D01*
X01198586Y00668084D01*
X01194816Y00664315D01*
X01138254Y00664315D01*
X01128882Y00673688D01*
X01128882Y00676184D01*
X00836698Y00384000D01*
X00771118Y00384000D01*
X00771118Y00373688D01*
X00761745Y00364315D01*
X00705184Y00364315D01*
X00700000Y00369499D01*
X00694816Y00364315D01*
X00691383Y00364315D01*
X00746698Y00309000D01*
X00864301Y00309000D01*
X00924000Y00368698D01*
X00936301Y00381000D01*
X00947000Y00381000D01*
X00947000Y00432127D01*
X00951000Y00436127D01*
X00951000Y00449698D01*
X00963301Y00462000D01*
X01008301Y00507000D01*
X01107301Y00507000D01*
X01275000Y00674698D01*
X01275000Y00683698D01*
X01287301Y00696000D01*
X01491000Y00899698D01*
X01491000Y00953868D01*
X01490891Y00962431D01*
X01491000Y00962542D01*
X01491000Y00962698D01*
X01492617Y00964315D01*
X01472506Y00964315D01*
X01463134Y00973688D01*
X01463134Y01026312D01*
X01472506Y01035685D01*
X01481798Y01035685D01*
X01481175Y01041349D01*
X01482000Y01042379D01*
X01482000Y01043698D01*
X01487336Y01049035D01*
X01492057Y01054922D01*
X01493368Y01055067D01*
X01494301Y01056000D01*
X01501848Y01056000D01*
X01509349Y01056825D01*
X01510379Y01056000D01*
X01511698Y01056000D01*
X01517035Y01050663D01*
X01535718Y01035685D01*
X01540879Y01035685D01*
X01549748Y01026816D01*
X01549748Y01063714D01*
X01559121Y01073086D01*
X01627493Y01073086D01*
X01636866Y01063714D01*
X01636866Y01020000D01*
X01834000Y01020000D01*
X01834000Y01056627D01*
X01843373Y01066000D01*
X02056627Y01066000D01*
X02066000Y01056627D01*
X02066000Y00943373D01*
X02056627Y00934000D01*
X01843373Y00934000D01*
X01834000Y00943373D01*
X01834000Y00978000D01*
X01636866Y00978000D01*
X01636866Y00936286D01*
X01627493Y00926913D01*
X01596000Y00926913D01*
X01596000Y00918301D01*
X01583698Y00906000D01*
X01506000Y00828301D01*
X01506000Y00635685D01*
X01511745Y00635685D01*
X01521118Y00626312D01*
X01521118Y00573688D01*
X01511745Y00564315D01*
X01455184Y00564315D01*
X01450000Y00569499D01*
X01444816Y00564315D01*
X01388254Y00564315D01*
X01378882Y00573688D01*
X01378882Y00582000D01*
X01316912Y00582000D01*
X01307392Y00572481D01*
X01294161Y00567000D01*
X01279839Y00567000D01*
X01266608Y00572481D01*
X01262893Y00576195D01*
X01133698Y00447000D01*
X01106698Y00447000D01*
X01097413Y00437714D01*
X01100000Y00435127D01*
X01106373Y00441500D01*
X01143627Y00441500D01*
X01145108Y00440019D01*
X01149608Y00444519D01*
X01162839Y00450000D01*
X01176301Y00450000D01*
X01251301Y00525000D01*
X01478882Y00525000D01*
X01478882Y00526312D01*
X01488254Y00535685D01*
X01544816Y00535685D01*
X01550000Y00530501D01*
X01555184Y00535685D01*
X01611745Y00535685D01*
X01621118Y00526312D01*
X01621118Y00525000D01*
X01800301Y00525000D01*
X01833000Y00557698D01*
X01834000Y00558698D01*
X01834000Y00606627D01*
X01843373Y00616000D01*
X02056627Y00616000D01*
X02066000Y00606627D01*
X02066000Y00493373D01*
X02056627Y00484000D01*
X01843373Y00484000D01*
X01834000Y00493373D01*
X01834000Y00499302D01*
X01817698Y00483000D01*
X01621118Y00483000D01*
X01621118Y00473688D01*
X01611745Y00464315D01*
X01555184Y00464315D01*
X01550000Y00469499D01*
X01544816Y00464315D01*
X01488254Y00464315D01*
X01478882Y00473688D01*
X01478882Y00483000D01*
X01268698Y00483000D01*
X01206000Y00420301D01*
X01206000Y00406839D01*
X01200519Y00393608D01*
X01190392Y00383481D01*
X01177161Y00378000D01*
X01162839Y00378000D01*
X01153000Y00382076D01*
X01153000Y00331873D01*
X01145127Y00324000D01*
X01790059Y00324000D01*
X01829654Y00363595D01*
X01834000Y00367941D01*
X01834000Y00456627D01*
X01843373Y00466000D01*
X02056627Y00466000D01*
X02066000Y00456627D01*
X02066000Y00343373D01*
X02056627Y00334000D01*
X01917941Y00334000D01*
X01913595Y00329654D01*
X01904774Y00326000D01*
X01859941Y00326000D01*
X01849941Y00316000D01*
X02056627Y00316000D01*
X02066000Y00306627D01*
X02066000Y00193373D01*
X02056627Y00184000D01*
X01843373Y00184000D01*
X01834000Y00193373D01*
X01834000Y00195000D01*
X01106698Y00195000D01*
X01092000Y00180301D01*
X01092000Y00176500D01*
X01093627Y00176500D01*
X01098589Y00171539D01*
X01098596Y00171552D01*
X01101948Y00174904D01*
X01106052Y00177273D01*
X01110630Y00178500D01*
X01124999Y00178500D01*
X01124999Y00117001D01*
X01125000Y00117001D01*
X01125000Y00178500D01*
X01139370Y00178500D01*
X01143948Y00177273D01*
X01148052Y00174904D01*
X01151404Y00171552D01*
X01153773Y00167448D01*
X01155000Y00162870D01*
X01155000Y00117000D01*
X01125001Y00117000D01*
X01125001Y00116999D01*
X01155000Y00116999D01*
X01155000Y00071130D01*
X01153773Y00066552D01*
X01153454Y00066000D01*
X01791301Y00066000D01*
X01833000Y00107698D01*
X01834000Y00108698D01*
X01834000Y00156627D01*
X01843373Y00166000D01*
X02056627Y00166000D01*
X02066000Y00156627D01*
X02066000Y00048000D01*
X02189008Y00048000D01*
X02189008Y01251606D01*
X-00052000Y01251606D01*
X-00052000Y01247885D02*
X02189008Y01247885D01*
X02189008Y01231886D02*
X-00052000Y01231886D01*
X-00052000Y01215888D02*
X02189008Y01215888D01*
X02189008Y01199889D02*
X-00052000Y01199889D01*
X-00052000Y01183891D02*
X02189008Y01183891D01*
X02189008Y01167892D02*
X-00052000Y01167892D01*
X-00052000Y01151894D02*
X02189008Y01151894D01*
X02189008Y01135895D02*
X-00052000Y01135895D01*
X-00052000Y01119897D02*
X02189008Y01119897D01*
X02189008Y01103898D02*
X02084800Y01103898D01*
X02100799Y01087900D02*
X02189008Y01087900D01*
X02189008Y01071901D02*
X02109000Y01071901D01*
X02109000Y01055903D02*
X02189008Y01055903D01*
X02189008Y01039904D02*
X02109000Y01039904D01*
X02109000Y01023906D02*
X02189008Y01023906D01*
X02189008Y01007907D02*
X02109000Y01007907D01*
X02109000Y00991908D02*
X02189008Y00991908D01*
X02189008Y00975910D02*
X02109000Y00975910D01*
X02109000Y00959911D02*
X02189008Y00959911D01*
X02189008Y00943913D02*
X02109000Y00943913D01*
X02109000Y00927914D02*
X02189008Y00927914D01*
X02189008Y00911916D02*
X02109000Y00911916D01*
X02109000Y00895917D02*
X02189008Y00895917D01*
X02189008Y00879919D02*
X02106617Y00879919D01*
X02090619Y00863920D02*
X02189008Y00863920D01*
X02189008Y00847922D02*
X02074620Y00847922D01*
X02066000Y00831923D02*
X02189008Y00831923D01*
X02189008Y00815925D02*
X02066000Y00815925D01*
X02066000Y00799926D02*
X02189008Y00799926D01*
X02189008Y00783928D02*
X01506000Y00783928D01*
X01506000Y00799926D02*
X01834000Y00799926D01*
X01834000Y00815925D02*
X01506000Y00815925D01*
X01509622Y00831923D02*
X01834000Y00831923D01*
X01834000Y00847922D02*
X01525620Y00847922D01*
X01541619Y00863920D02*
X01834000Y00863920D01*
X01834000Y00879919D02*
X01557617Y00879919D01*
X01573616Y00895917D02*
X01834000Y00895917D01*
X01839289Y00911916D02*
X01589614Y00911916D01*
X01628494Y00927914D02*
X02067000Y00927914D01*
X02067000Y00911916D02*
X02060711Y00911916D01*
X02066000Y00943913D02*
X02067000Y00943913D01*
X02067000Y00959911D02*
X02066000Y00959911D01*
X02066000Y00975910D02*
X02067000Y00975910D01*
X02067000Y00991908D02*
X02066000Y00991908D01*
X02066000Y01007907D02*
X02067000Y01007907D01*
X02067000Y01023906D02*
X02066000Y01023906D01*
X02066000Y01039904D02*
X02067000Y01039904D01*
X02067000Y01055903D02*
X02066000Y01055903D01*
X02057400Y01071901D02*
X01628679Y01071901D01*
X01636866Y01055903D02*
X01834000Y01055903D01*
X01834000Y01039904D02*
X01636866Y01039904D01*
X01636866Y01023906D02*
X01834000Y01023906D01*
X01834000Y00975910D02*
X01636866Y00975910D01*
X01636866Y00959911D02*
X01834000Y00959911D01*
X01834000Y00943913D02*
X01636866Y00943913D01*
X01549748Y01039904D02*
X01530455Y01039904D01*
X01511796Y01055903D02*
X01549748Y01055903D01*
X01557935Y01071901D02*
X01470600Y01071901D01*
X01454601Y01055903D02*
X01494204Y01055903D01*
X01481334Y01039904D02*
X01438602Y01039904D01*
X01422604Y01023906D02*
X01463134Y01023906D01*
X01463134Y01007907D02*
X01406605Y01007907D01*
X01390607Y00991908D02*
X01463134Y00991908D01*
X01463134Y00975910D02*
X01374608Y00975910D01*
X01358610Y00959911D02*
X01490923Y00959911D01*
X01491000Y00943913D02*
X01342611Y00943913D01*
X01326613Y00927914D02*
X01491000Y00927914D01*
X01491000Y00911916D02*
X01310614Y00911916D01*
X01294616Y00895917D02*
X01487219Y00895917D01*
X01471220Y00879919D02*
X01278617Y00879919D01*
X01262619Y00863920D02*
X01455222Y00863920D01*
X01439223Y00847922D02*
X01246620Y00847922D01*
X01230622Y00831923D02*
X01423225Y00831923D01*
X01407226Y00815925D02*
X01214623Y00815925D01*
X01198625Y00799926D02*
X01391228Y00799926D01*
X01375229Y00783928D02*
X01191000Y00783928D01*
X01191000Y00767929D02*
X01359231Y00767929D01*
X01343232Y00751931D02*
X01191000Y00751931D01*
X01191000Y00735932D02*
X01203952Y00735932D01*
X01231622Y00735932D02*
X01235307Y00735932D01*
X01235307Y00719934D02*
X01231622Y00719934D01*
X01231622Y00703935D02*
X01235307Y00703935D01*
X01235307Y00687937D02*
X01231622Y00687937D01*
X01231622Y00671938D02*
X01235307Y00671938D01*
X01256241Y00655939D02*
X01108638Y00655939D01*
X01092639Y00639941D02*
X01240242Y00639941D01*
X01224244Y00623942D02*
X01076641Y00623942D01*
X01060642Y00607944D02*
X01208245Y00607944D01*
X01192247Y00591945D02*
X01044644Y00591945D01*
X01028645Y00575947D02*
X01176248Y00575947D01*
X01160250Y00559948D02*
X01012647Y00559948D01*
X00996648Y00543950D02*
X01144251Y00543950D01*
X01128253Y00527951D02*
X00980650Y00527951D01*
X00964651Y00511953D02*
X01112254Y00511953D01*
X01166654Y00479956D02*
X01206257Y00479956D01*
X01190259Y00463957D02*
X01150656Y00463957D01*
X01157911Y00447959D02*
X01134657Y00447959D01*
X01182653Y00495954D02*
X01222256Y00495954D01*
X01238254Y00511953D02*
X01198651Y00511953D01*
X01214650Y00527951D02*
X01480521Y00527951D01*
X01478882Y00479956D02*
X01265654Y00479956D01*
X01249656Y00463957D02*
X01841330Y00463957D01*
X01834000Y00447959D02*
X01233657Y00447959D01*
X01217659Y00431960D02*
X01834000Y00431960D01*
X01834000Y00415962D02*
X01206000Y00415962D01*
X01203152Y00399963D02*
X01834000Y00399963D01*
X01834000Y00383965D02*
X01190876Y00383965D01*
X01153000Y00367966D02*
X01834000Y00367966D01*
X01818026Y00351968D02*
X01153000Y00351968D01*
X01153000Y00335969D02*
X01802028Y00335969D01*
X01800000Y00300000D02*
X01850000Y00350000D01*
X01900000Y00350000D01*
X01950000Y00400000D01*
X02066000Y00399963D02*
X02189008Y00399963D01*
X02189008Y00383965D02*
X02066000Y00383965D01*
X02066000Y00367966D02*
X02189008Y00367966D01*
X02189008Y00351968D02*
X02066000Y00351968D01*
X02058596Y00335969D02*
X02189008Y00335969D01*
X02189008Y00319970D02*
X01853911Y00319970D01*
X01800000Y00300000D02*
X01050000Y00300000D01*
X01025000Y00325000D01*
X01025000Y00382000D01*
X01000000Y00357000D01*
X01000000Y00306000D01*
X01000000Y00050000D01*
X00650000Y00050000D01*
X00650000Y00100000D01*
X00539370Y00100000D01*
X00503685Y00095991D02*
X00496315Y00095991D01*
X00496315Y00079993D02*
X00503685Y00079993D01*
X00496315Y00077625D02*
X00496315Y00122375D01*
X00486942Y00131748D01*
X00480000Y00131748D01*
X00480000Y00152698D01*
X00264000Y00368698D01*
X00251698Y00381000D01*
X00089698Y00381000D01*
X00066000Y00404698D01*
X00066000Y00495301D01*
X00143698Y00573000D01*
X00156000Y00585301D01*
X00156000Y00666301D01*
X00173698Y00684000D01*
X00306627Y00684000D01*
X00316000Y00693373D01*
X00316000Y00806627D01*
X00306627Y00816000D01*
X00093373Y00816000D01*
X00084000Y00806627D01*
X00084000Y00693373D01*
X00093373Y00684000D01*
X00114302Y00684000D01*
X00114000Y00683698D01*
X00114000Y00602698D01*
X00024000Y00512698D01*
X00024000Y00387301D01*
X00036301Y00375000D01*
X00072301Y00339000D01*
X00234301Y00339000D01*
X00438000Y00135301D01*
X00438000Y00131748D01*
X00434317Y00131748D01*
X00424945Y00122375D01*
X00424945Y00077625D01*
X00434317Y00068252D01*
X00486942Y00068252D01*
X00496315Y00077625D01*
X00496315Y00111990D02*
X00503685Y00111990D01*
X00509298Y00127988D02*
X00490702Y00127988D01*
X00480000Y00143987D02*
X00654315Y00143987D01*
X00645000Y00159985D02*
X00472713Y00159985D01*
X00456715Y00175984D02*
X00628882Y00175984D01*
X00628882Y00191982D02*
X00440716Y00191982D01*
X00424718Y00207981D02*
X00628882Y00207981D01*
X00628882Y00223979D02*
X00408719Y00223979D01*
X00392720Y00239978D02*
X00717000Y00239978D01*
X00717000Y00255976D02*
X00376722Y00255976D01*
X00360723Y00271975D02*
X00717000Y00271975D01*
X00708328Y00287973D02*
X00344725Y00287973D01*
X00328726Y00303972D02*
X00692329Y00303972D01*
X00676331Y00319970D02*
X00312728Y00319970D01*
X00296729Y00335969D02*
X00660332Y00335969D01*
X00645000Y00351968D02*
X00280731Y00351968D01*
X00264732Y00367966D02*
X00634603Y00367966D01*
X00603337Y00383965D02*
X00086734Y00383965D01*
X00084000Y00399963D02*
X00070735Y00399963D01*
X00066000Y00415962D02*
X00084000Y00415962D01*
X00084000Y00431960D02*
X00066000Y00431960D01*
X00066000Y00447959D02*
X00084000Y00447959D01*
X00084000Y00463957D02*
X00066000Y00463957D01*
X00066000Y00479956D02*
X00084000Y00479956D01*
X00084000Y00495954D02*
X00066653Y00495954D01*
X00082651Y00511953D02*
X00089325Y00511953D01*
X00098650Y00527951D02*
X00258000Y00527951D01*
X00271251Y00543950D02*
X00114648Y00543950D01*
X00130647Y00559948D02*
X00287250Y00559948D01*
X00303248Y00575947D02*
X00146645Y00575947D01*
X00156000Y00591945D02*
X00319247Y00591945D01*
X00321000Y00607944D02*
X00156000Y00607944D01*
X00156000Y00623942D02*
X00321000Y00623942D01*
X00321000Y00639941D02*
X00156000Y00639941D01*
X00156000Y00655939D02*
X00321000Y00655939D01*
X00321000Y00671938D02*
X00161636Y00671938D01*
X00114000Y00671938D02*
X-00052000Y00671938D01*
X-00052000Y00655939D02*
X00114000Y00655939D01*
X00114000Y00639941D02*
X-00052000Y00639941D01*
X-00052000Y00623942D02*
X00114000Y00623942D01*
X00114000Y00607944D02*
X-00052000Y00607944D01*
X-00052000Y00591945D02*
X00103247Y00591945D01*
X00087248Y00575947D02*
X-00052000Y00575947D01*
X-00052000Y00559948D02*
X00071250Y00559948D01*
X00055251Y00543950D02*
X-00052000Y00543950D01*
X-00052000Y00527951D02*
X00039253Y00527951D01*
X00024000Y00511953D02*
X-00052000Y00511953D01*
X-00052000Y00495954D02*
X00024000Y00495954D01*
X00024000Y00479956D02*
X-00052000Y00479956D01*
X-00052000Y00463957D02*
X00024000Y00463957D01*
X00024000Y00447959D02*
X-00052000Y00447959D01*
X-00052000Y00431960D02*
X00024000Y00431960D01*
X00024000Y00415962D02*
X-00052000Y00415962D01*
X-00052000Y00399963D02*
X00024000Y00399963D01*
X00027337Y00383965D02*
X-00052000Y00383965D01*
X-00052000Y00367966D02*
X00043335Y00367966D01*
X00059334Y00351968D02*
X-00052000Y00351968D01*
X-00052000Y00335969D02*
X00237332Y00335969D01*
X00253331Y00319970D02*
X-00052000Y00319970D01*
X-00052000Y00303972D02*
X00269329Y00303972D01*
X00285328Y00287973D02*
X-00052000Y00287973D01*
X-00052000Y00271975D02*
X00301327Y00271975D01*
X00317325Y00255976D02*
X-00052000Y00255976D01*
X-00052000Y00239978D02*
X00333324Y00239978D01*
X00349322Y00223979D02*
X-00052000Y00223979D01*
X-00052000Y00207981D02*
X00083823Y00207981D01*
X00083227Y00206948D02*
X00082000Y00202370D01*
X00082000Y00158000D01*
X00192000Y00158000D01*
X00192000Y00218000D01*
X00097630Y00218000D01*
X00093052Y00216773D01*
X00088948Y00214404D01*
X00085596Y00211052D01*
X00083227Y00206948D01*
X00082000Y00191982D02*
X-00052000Y00191982D01*
X-00052000Y00175984D02*
X00082000Y00175984D01*
X00082000Y00159985D02*
X-00052000Y00159985D01*
X-00052000Y00143987D02*
X00192000Y00143987D01*
X00192000Y00142000D02*
X00082000Y00142000D01*
X00082000Y00097630D01*
X00083227Y00093052D01*
X00085596Y00088948D01*
X00088948Y00085596D01*
X00093052Y00083227D01*
X00097630Y00082000D01*
X00192000Y00082000D01*
X00192000Y00142000D01*
X00208000Y00142000D01*
X00208000Y00158000D01*
X00192000Y00158000D01*
X00192000Y00142000D01*
X00192000Y00127988D02*
X00208000Y00127988D01*
X00208000Y00142000D02*
X00208000Y00082000D01*
X00302370Y00082000D01*
X00306948Y00083227D01*
X00311052Y00085596D01*
X00314404Y00088948D01*
X00316773Y00093052D01*
X00318000Y00097630D01*
X00318000Y00142000D01*
X00208000Y00142000D01*
X00208000Y00143987D02*
X00429315Y00143987D01*
X00430558Y00127988D02*
X00318000Y00127988D01*
X00318000Y00111990D02*
X00424945Y00111990D01*
X00424945Y00095991D02*
X00317561Y00095991D01*
X00318000Y00158000D02*
X00208000Y00158000D01*
X00208000Y00218000D01*
X00302370Y00218000D01*
X00306948Y00216773D01*
X00311052Y00214404D01*
X00314404Y00211052D01*
X00316773Y00206948D01*
X00318000Y00202370D01*
X00318000Y00158000D01*
X00318000Y00159985D02*
X00413316Y00159985D01*
X00397318Y00175984D02*
X00318000Y00175984D01*
X00318000Y00191982D02*
X00381319Y00191982D01*
X00365321Y00207981D02*
X00316177Y00207981D01*
X00208000Y00207981D02*
X00192000Y00207981D01*
X00192000Y00191982D02*
X00208000Y00191982D01*
X00208000Y00175984D02*
X00192000Y00175984D01*
X00192000Y00159985D02*
X00208000Y00159985D01*
X00208000Y00111990D02*
X00192000Y00111990D01*
X00192000Y00095991D02*
X00208000Y00095991D01*
X00082439Y00095991D02*
X-00052000Y00095991D01*
X-00052000Y00079993D02*
X00424945Y00079993D01*
X00569442Y00127988D02*
X00670313Y00127988D01*
X00671011Y00111990D02*
X00947000Y00111990D01*
X00947000Y00095991D02*
X00674000Y00095991D01*
X00674000Y00079993D02*
X00947000Y00079993D01*
X01094143Y00175984D02*
X01103819Y00175984D01*
X01103681Y00191982D02*
X01835390Y00191982D01*
X01837358Y00159985D02*
X01155000Y00159985D01*
X01155000Y00143987D02*
X01834000Y00143987D01*
X01834000Y00127988D02*
X01155000Y00127988D01*
X01155000Y00111990D02*
X01834000Y00111990D01*
X01821293Y00095991D02*
X01155000Y00095991D01*
X01155000Y00079993D02*
X01805294Y00079993D01*
X02066000Y00079993D02*
X02189008Y00079993D01*
X02189008Y00095991D02*
X02066000Y00095991D01*
X02066000Y00111990D02*
X02189008Y00111990D01*
X02189008Y00127988D02*
X02066000Y00127988D01*
X02066000Y00143987D02*
X02189008Y00143987D01*
X02189008Y00159985D02*
X02062642Y00159985D01*
X02064610Y00191982D02*
X02189008Y00191982D01*
X02189008Y00175984D02*
X01146181Y00175984D01*
X01125000Y00175984D02*
X01124999Y00175984D01*
X01124999Y00159985D02*
X01125000Y00159985D01*
X01124999Y00143987D02*
X01125000Y00143987D01*
X01124999Y00127988D02*
X01125000Y00127988D01*
X00875272Y00319970D02*
X00735728Y00319970D01*
X00719729Y00335969D02*
X00891271Y00335969D01*
X00907269Y00351968D02*
X00703731Y00351968D01*
X00701532Y00367966D02*
X00698467Y00367966D01*
X00765397Y00367966D02*
X00923268Y00367966D01*
X00947000Y00383965D02*
X00771118Y00383965D01*
X00765470Y00431960D02*
X00825262Y00431960D01*
X00841260Y00447959D02*
X00702657Y00447959D01*
X00701459Y00431960D02*
X00698541Y00431960D01*
X00705000Y00463957D02*
X00857259Y00463957D01*
X00873257Y00479956D02*
X00721118Y00479956D01*
X00721118Y00495954D02*
X00889256Y00495954D01*
X00905254Y00511953D02*
X00721118Y00511953D01*
X00719479Y00527951D02*
X00921253Y00527951D01*
X00937251Y00543950D02*
X00330648Y00543950D01*
X00346647Y00559948D02*
X00953250Y00559948D01*
X00969248Y00575947D02*
X00362645Y00575947D01*
X00363000Y00591945D02*
X00985247Y00591945D01*
X01001245Y00607944D02*
X00363000Y00607944D01*
X00363000Y00623942D02*
X01017244Y00623942D01*
X01033242Y00639941D02*
X00363000Y00639941D01*
X00363000Y00655939D02*
X01049241Y00655939D01*
X01065240Y00671938D02*
X00363000Y00671938D01*
X00363000Y00687937D02*
X01081238Y00687937D01*
X01097237Y00703935D02*
X00363000Y00703935D01*
X00363000Y00719934D02*
X01113235Y00719934D01*
X01149000Y00735932D02*
X00363000Y00735932D01*
X00363000Y00751931D02*
X01149000Y00751931D01*
X01149000Y00767929D02*
X00363000Y00767929D01*
X00363000Y00783928D02*
X01149000Y00783928D01*
X01149000Y00799926D02*
X00363000Y00799926D01*
X00363000Y00815925D02*
X01155226Y00815925D01*
X01171225Y00831923D02*
X00363000Y00831923D01*
X00363000Y00847922D02*
X01187223Y00847922D01*
X01203222Y00863920D02*
X00363000Y00863920D01*
X00363000Y00879919D02*
X01219220Y00879919D01*
X01235219Y00895917D02*
X00363000Y00895917D01*
X00363000Y00911916D02*
X00413131Y00911916D01*
X00397132Y00927914D02*
X00363000Y00927914D01*
X00363000Y00943913D02*
X00397000Y00943913D01*
X00397000Y00959911D02*
X00368610Y00959911D01*
X00384608Y00975910D02*
X00400957Y00975910D01*
X00400607Y00991908D02*
X00416955Y00991908D01*
X00417140Y01007907D02*
X00416605Y01007907D01*
X00373207Y01023906D02*
X-00052000Y01023906D01*
X-00052000Y01039904D02*
X00389206Y01039904D01*
X00397000Y01055903D02*
X-00052000Y01055903D01*
X-00052000Y01071901D02*
X00397000Y01071901D01*
X00412946Y01087900D02*
X-00052000Y01087900D01*
X-00052000Y01103898D02*
X01443200Y01103898D01*
X01427201Y01087900D02*
X00887054Y01087900D01*
X00903000Y01071901D02*
X01411203Y01071901D01*
X01395204Y01055903D02*
X00903000Y01055903D01*
X00903000Y01039904D02*
X01379206Y01039904D01*
X01363207Y01023906D02*
X00898859Y01023906D01*
X00882860Y01007907D02*
X01347209Y01007907D01*
X01331210Y00991908D02*
X00883045Y00991908D01*
X00899043Y00975910D02*
X01315211Y00975910D01*
X01299213Y00959911D02*
X00903000Y00959911D01*
X00903000Y00943913D02*
X01283214Y00943913D01*
X01267216Y00927914D02*
X00902868Y00927914D01*
X00886869Y00911916D02*
X01251217Y00911916D01*
X01506000Y00767929D02*
X01847366Y00767929D01*
X01847630Y00768000D02*
X01843052Y00766773D01*
X01838948Y00764404D01*
X01835596Y00761052D01*
X01833227Y00756948D01*
X01832000Y00752370D01*
X01832000Y00708000D01*
X01942000Y00708000D01*
X01942000Y00768000D01*
X01847630Y00768000D01*
X01832000Y00751931D02*
X01506000Y00751931D01*
X01506000Y00735932D02*
X01832000Y00735932D01*
X01832000Y00719934D02*
X01506000Y00719934D01*
X01506000Y00703935D02*
X01942000Y00703935D01*
X01942000Y00708000D02*
X01942000Y00692000D01*
X01958000Y00692000D01*
X01958000Y00708000D01*
X01942000Y00708000D01*
X01942000Y00719934D02*
X01958000Y00719934D01*
X01958000Y00708000D02*
X01958000Y00768000D01*
X02052370Y00768000D01*
X02056948Y00766773D01*
X02061052Y00764404D01*
X02064404Y00761052D01*
X02066773Y00756948D01*
X02068000Y00752370D01*
X02068000Y00708000D01*
X01958000Y00708000D01*
X01958000Y00703935D02*
X02189008Y00703935D01*
X02189008Y00687937D02*
X02068000Y00687937D01*
X02068000Y00692000D02*
X01958000Y00692000D01*
X01958000Y00632000D01*
X02052370Y00632000D01*
X02056948Y00633227D01*
X02061052Y00635596D01*
X02064404Y00638948D01*
X02066773Y00643052D01*
X02068000Y00647630D01*
X02068000Y00692000D01*
X02068000Y00671938D02*
X02189008Y00671938D01*
X02189008Y00655939D02*
X02068000Y00655939D01*
X02064977Y00639941D02*
X02189008Y00639941D01*
X02189008Y00623942D02*
X01521118Y00623942D01*
X01521118Y00607944D02*
X01835317Y00607944D01*
X01834000Y00591945D02*
X01521118Y00591945D01*
X01521118Y00575947D02*
X01834000Y00575947D01*
X01834000Y00559948D02*
X01246647Y00559948D01*
X01230648Y00543950D02*
X01819251Y00543950D01*
X01803253Y00527951D02*
X01619479Y00527951D01*
X01621118Y00479956D02*
X02189008Y00479956D01*
X02189008Y00495954D02*
X02066000Y00495954D01*
X02066000Y00511953D02*
X02189008Y00511953D01*
X02189008Y00527951D02*
X02066000Y00527951D01*
X02066000Y00543950D02*
X02189008Y00543950D01*
X02189008Y00559948D02*
X02066000Y00559948D01*
X02066000Y00575947D02*
X02189008Y00575947D01*
X02189008Y00591945D02*
X02066000Y00591945D01*
X02064683Y00607944D02*
X02189008Y00607944D01*
X02189008Y00719934D02*
X02068000Y00719934D01*
X02068000Y00735932D02*
X02189008Y00735932D01*
X02189008Y00751931D02*
X02068000Y00751931D01*
X02052634Y00767929D02*
X02189008Y00767929D01*
X01958000Y00767929D02*
X01942000Y00767929D01*
X01942000Y00751931D02*
X01958000Y00751931D01*
X01958000Y00735932D02*
X01942000Y00735932D01*
X01942000Y00692000D02*
X01832000Y00692000D01*
X01832000Y00647630D01*
X01833227Y00643052D01*
X01835596Y00638948D01*
X01838948Y00635596D01*
X01843052Y00633227D01*
X01847630Y00632000D01*
X01942000Y00632000D01*
X01942000Y00692000D01*
X01942000Y00687937D02*
X01958000Y00687937D01*
X01958000Y00671938D02*
X01942000Y00671938D01*
X01942000Y00655939D02*
X01958000Y00655939D01*
X01958000Y00639941D02*
X01942000Y00639941D01*
X01835023Y00639941D02*
X01506000Y00639941D01*
X01506000Y00655939D02*
X01832000Y00655939D01*
X01832000Y00671938D02*
X01506000Y00671938D01*
X01506000Y00687937D02*
X01832000Y00687937D01*
X01830653Y00495954D02*
X01834000Y00495954D01*
X02058670Y00463957D02*
X02189008Y00463957D01*
X02189008Y00447959D02*
X02066000Y00447959D01*
X02066000Y00431960D02*
X02189008Y00431960D01*
X02189008Y00415962D02*
X02066000Y00415962D01*
X02066000Y00303972D02*
X02189008Y00303972D01*
X02189008Y00287973D02*
X02066000Y00287973D01*
X02066000Y00271975D02*
X02189008Y00271975D01*
X02189008Y00255976D02*
X02066000Y00255976D01*
X02066000Y00239978D02*
X02189008Y00239978D01*
X02189008Y00223979D02*
X02066000Y00223979D01*
X02066000Y00207981D02*
X02189008Y00207981D01*
X02189008Y00063994D02*
X02066000Y00063994D01*
X01378882Y00575947D02*
X01310858Y00575947D01*
X01263141Y00575947D02*
X01262645Y00575947D01*
X01271066Y00671938D02*
X01272240Y00671938D01*
X01273118Y00687937D02*
X01279238Y00687937D01*
X01273118Y00703935D02*
X01295237Y00703935D01*
X01311235Y00719934D02*
X01273118Y00719934D01*
X01262977Y00735932D02*
X01327234Y00735932D01*
X01130631Y00671938D02*
X01124636Y00671938D01*
X00997256Y00495954D02*
X00948653Y00495954D01*
X00932654Y00479956D02*
X00981257Y00479956D01*
X00965259Y00463957D02*
X00916656Y00463957D01*
X00900657Y00447959D02*
X00951000Y00447959D01*
X00947000Y00431960D02*
X00884658Y00431960D01*
X00868660Y00415962D02*
X00947000Y00415962D01*
X00947000Y00399963D02*
X00852661Y00399963D01*
X00659259Y00463957D02*
X00645856Y00463957D01*
X00645000Y00447959D02*
X00598740Y00447959D01*
X00587214Y00463957D02*
X00582741Y00463957D01*
X00576882Y00479956D02*
X00316000Y00479956D01*
X00316000Y00495954D02*
X00576882Y00495954D01*
X00576882Y00511953D02*
X00310674Y00511953D01*
X00314650Y00527951D02*
X00578870Y00527951D01*
X00614693Y00527951D02*
X00618378Y00527951D01*
X00618378Y00511953D02*
X00614693Y00511953D01*
X00614693Y00495954D02*
X00618378Y00495954D01*
X00618378Y00479956D02*
X00614693Y00479956D01*
X00614693Y00463957D02*
X00618378Y00463957D01*
X00614738Y00431960D02*
X00634530Y00431960D01*
X00587338Y00399963D02*
X00316000Y00399963D01*
X00316000Y00415962D02*
X00571340Y00415962D01*
X00321000Y00687937D02*
X00310564Y00687937D01*
X00316000Y00703935D02*
X00321000Y00703935D01*
X00321000Y00719934D02*
X00316000Y00719934D01*
X00316000Y00735932D02*
X00321000Y00735932D01*
X00321000Y00751931D02*
X00316000Y00751931D01*
X00316000Y00767929D02*
X00321000Y00767929D01*
X00321000Y00783928D02*
X00316000Y00783928D01*
X00316000Y00799926D02*
X00321000Y00799926D01*
X00321000Y00815925D02*
X00306703Y00815925D01*
X00321000Y00831923D02*
X-00052000Y00831923D01*
X-00052000Y00815925D02*
X00093297Y00815925D01*
X00084000Y00799926D02*
X-00052000Y00799926D01*
X-00052000Y00783928D02*
X00084000Y00783928D01*
X00084000Y00767929D02*
X-00052000Y00767929D01*
X-00052000Y00751931D02*
X00084000Y00751931D01*
X00084000Y00735932D02*
X-00052000Y00735932D01*
X-00052000Y00719934D02*
X00084000Y00719934D01*
X00084000Y00703935D02*
X-00052000Y00703935D01*
X-00052000Y00687937D02*
X00089436Y00687937D01*
X-00052000Y00847922D02*
X00321000Y00847922D01*
X00321000Y00863920D02*
X-00052000Y00863920D01*
X-00052000Y00879919D02*
X00321000Y00879919D01*
X00321000Y00895917D02*
X-00052000Y00895917D01*
X-00052000Y00911916D02*
X00321000Y00911916D01*
X00321000Y00927914D02*
X-00052000Y00927914D01*
X-00052000Y00943913D02*
X00321000Y00943913D01*
X00321000Y00959911D02*
X-00052000Y00959911D01*
X-00052000Y00975910D02*
X00325211Y00975910D01*
X00341210Y00991908D02*
X-00052000Y00991908D01*
X-00052000Y01007907D02*
X00357209Y01007907D01*
X00487054Y01087900D02*
X00512946Y01087900D01*
X00587054Y01087900D02*
X00612946Y01087900D01*
X00687054Y01087900D02*
X00712946Y01087900D01*
X00787054Y01087900D02*
X00812946Y01087900D01*
X00813131Y00911916D02*
X00786869Y00911916D01*
X00713131Y00911916D02*
X00686869Y00911916D01*
X00613131Y00911916D02*
X00586869Y00911916D01*
X00513131Y00911916D02*
X00486869Y00911916D01*
X00082000Y00127988D02*
X-00052000Y00127988D01*
X-00052000Y00111990D02*
X00082000Y00111990D01*
X-00052000Y00063994D02*
X00626000Y00063994D01*
D18*
X00909000Y00270000D03*
X00999000Y00306000D03*
X01170000Y00414000D03*
X01287000Y00603000D03*
M02*
